# xmcd
#
# Track frame offsets:
#	150
#	18233
#	32536
#	47064
#	67254
#	83848
#	101199
#	120032
#	136752
#	157374
#	177846
#	193389
#	208987
#	225358
#	247012
#	273794
#	289106
#	305032
#
# Disc length: 4321 seconds
#
# Revision: 0
# Processed by: cddbd v1.5.2PL0 Copyright (c) Steve Scherf et al.
# Submitted via: EasyCDDAExtractor 9.1.0.1
#
DISCID=0410df12
DTITLE=ΡΑΛΛΙΑ ΧΡΗΣΤΙΔΟΥ - ΜΟΝΟ ΜΙΑ ΝΥΧΤΑ LIVE
DYEAR=2008
DGENRE=ΕΝΤΕΧΝΟ
TTITLE0=SOZIHNA
TTITLE1=ΚΡΥΨΟΥ
TTITLE2=SAY IT RIGHT
TTITLE3=ΕΙΣΑΙ ΜΑΚΡΙΑ
TTITLE4=ΔΙΨΑ
TTITLE5=ΑΝ ΜΕΤΡΗΘΟΥΜΕ
TTITLE6=ΔΕΝ ΠΕΙΡΑΖΕΙ
TTITLE7=ΠΑΡΑΚΑΛΩ
TTITLE8=YAMORE
TTITLE9=ΠΑΤΩΜΑ
TTITLE10=ΠΑΡΑΜΙΛΗΤΟ ΜΟΥ
TTITLE11=ΑΝ ΠΕΘΑΝΕΙ ΜΙΑ ΑΓΑΠΗ
TTITLE12=ΦΥΛΑΚΗ
TTITLE13=ΚΑΙΓΟΜΑΙ-ΚΑΙΓΟΜΑΙ
TTITLE14=ΤΑ ΠΑΙΔΙΑ ΤΗΣ ΓΕΙΤΟΝΙΑΣ ΣΟΥ
TTITLE15=ΘΑ 'ΜΑΙ ΑΥΤΟ ΠΟΥ ΠΟΤΕ ΜΑΣ ΔΕ ΦΤΑΝΟΥΜΕ
TTITLE16=ΕΓΩ ΓΙΑ ΣΕΝΑ (ANCORA VIVO)
TTITLE17=ΔΕΝ ΠΕΙΡΑΖΕΙ (STUDIO VERSION)
EXTD=
EXTT0=
EXTT1=
EXTT2=
EXTT3=
EXTT4=
EXTT5=
EXTT6=
EXTT7=
EXTT8=
EXTT9=
EXTT10=
EXTT11=
EXTT12=
EXTT13=
EXTT14=
EXTT15=
EXTT16=
EXTT17=
PLAYORDER=
